<svg width="25" height="25" viewBox="0 0 25 25" fill="none" xmlns="http://www.w3.org/2000/svg">
<path d="M12.5034 8.33156C14.7986 8.33156 16.6717 10.2047 16.6717 12.5C16.6717 14.7953 14.7986 16.6684 12.5034 16.6684C10.2081 16.6684 8.335 14.7953 8.335 12.5C8.335 10.2047 10.2081 8.33156 12.5034 8.33156ZM0.00139609 12.5C0.00139609 10.7738 -0.0142399 9.0633 0.0826987 7.34026C0.179637 5.33891 0.636187 3.56271 2.09965 2.09922C3.56624 0.632607 5.33928 0.179176 7.34059 0.082235C9.06673 -0.0147055 10.7772 0.000930141 12.5002 0.000930141C14.2264 0.000930141 15.9369 -0.0147055 17.6599 0.082235C19.6612 0.179176 21.4374 0.635734 22.9008 2.09922C24.3674 3.56584 24.8208 5.33891 24.9178 7.34026C25.0147 9.06643 24.9991 10.777 24.9991 12.5C24.9991 14.223 25.0147 15.9367 24.9178 17.6597C24.8208 19.6611 24.3643 21.4373 22.9008 22.9008C21.4342 24.3674 19.6612 24.8208 17.6599 24.9178C15.9337 25.0147 14.2232 24.9991 12.5002 24.9991C10.7741 24.9991 9.0636 25.0147 7.34059 24.9178C5.33928 24.8208 3.56311 24.3643 2.09965 22.9008C0.63306 21.4342 0.179637 19.6611 0.0826987 17.6597C-0.017367 15.9367 0.00139609 14.2262 0.00139609 12.5V12.5ZM12.5034 18.9137C16.0526 18.9137 18.9169 16.0493 18.9169 12.5C18.9169 8.95073 16.0526 6.08629 12.5034 6.08629C8.95415 6.08629 6.08977 8.95073 6.08977 12.5C6.08977 16.0493 8.95415 18.9137 12.5034 18.9137ZM5.8271 7.3215C6.65577 7.3215 7.32496 6.6523 7.32496 5.82361C7.32496 4.99493 6.65577 4.32573 5.8271 4.32573C4.99843 4.32573 4.32924 4.99493 4.32924 5.82361C4.32899 6.02039 4.36757 6.21528 4.44275 6.39712C4.51794 6.57897 4.62826 6.74419 4.7674 6.88333C4.90654 7.02247 5.07176 7.1328 5.2536 7.20798C5.43544 7.28317 5.63033 7.32175 5.8271 7.3215V7.3215Z" fill="white"/>
</svg>
